<svg width="16" height="16" viewBox="0 0 16 16" fill="none" xmlns="http://www.w3.org/2000/svg">
<path d="M1.63246 15.5794C1.94232 14.9092 2.23668 14.1214 2.51555 13.2158C2.79442 12.2921 3.02682 11.2959 3.21273 10.2273C3.39864 9.14055 3.4916 8.02666 3.4916 6.8856C3.4916 5.79887 3.35216 4.99289 3.07329 4.46764C2.80992 3.94239 2.4226 3.67976 1.91133 3.67976C1.70993 3.67976 1.53176 3.70693 1.37683 3.76127C1.2374 3.79749 1.11346 3.84277 1.00501 3.89711L0.447266 1.12596C0.664165 1.01729 0.943035 0.926725 1.28388 0.854277C1.64021 0.781829 2.01978 0.745605 2.4226 0.745605C3.22822 0.745605 3.93314 0.926726 4.53736 1.28897C5.14158 1.6331 5.61411 2.21268 5.95495 3.02773C6.29579 3.82466 6.46621 4.92044 6.46621 6.31507C6.46621 6.67731 6.45847 6.99427 6.44298 7.26595C6.42748 7.51952 6.40424 7.75498 6.37326 7.97232C6.35776 8.18967 6.32678 8.42513 6.2803 8.67869L11.9042 0.745605H14.9485C14.6387 1.41575 14.3056 2.2308 13.9492 3.19073C13.6084 4.15067 13.314 5.19212 13.0661 6.31507C12.8183 7.43802 12.6943 8.57002 12.6943 9.71108C12.6943 10.5261 12.7563 11.1691 12.8802 11.64C13.0197 12.0928 13.2288 12.4188 13.5077 12.6181C13.7866 12.7992 14.1274 12.8898 14.5302 12.8898C14.7161 12.8898 14.902 12.8716 15.088 12.8354C15.2894 12.7811 15.4443 12.7267 15.5527 12.6724V15.5251C15.3513 15.6156 15.1034 15.6881 14.8091 15.7424C14.5302 15.8149 14.2358 15.8511 13.926 15.8511C13.3528 15.8511 12.8105 15.7605 12.2992 15.5794C11.788 15.3983 11.3387 15.0994 10.9514 14.6828C10.5641 14.2663 10.2619 13.7139 10.045 13.0256C9.82815 12.3192 9.7197 11.4498 9.7197 10.4175C9.7197 9.92843 9.74294 9.47563 9.78942 9.05905C9.8359 8.62436 9.91336 8.19872 10.0218 7.78215L4.6768 15.5794H1.63246Z" fill="#F4AA73"/>
</svg>
