<svg width="82" height="103" viewBox="0 0 82 103" fill="none" xmlns="http://www.w3.org/2000/svg">
<path d="M75.0727 49.7626C77.7509 49.3557 80.252 51.1969 80.659 53.8752L81.532 59.6207C82.01 62.7663 79.8474 65.7038 76.7018 66.1818L74.315 66.5444C67.5797 67.5679 62.2546 66.0813 58.3397 62.0848C54.9918 68.4705 48.9173 72.332 40.1165 73.6693C39.1751 73.8123 38.2531 73.9114 37.3506 73.9664C32.9216 74.2365 28.3769 78.0387 29.0435 82.4256L30.9325 94.8575C31.4105 98.0031 29.2479 100.941 26.1023 101.419L20.1165 102.328C16.9708 102.806 14.0333 100.644 13.5553 97.498L0.966041 14.6463C0.488064 11.5007 2.65062 8.56321 5.79624 8.08523L11.7821 7.17568C14.9277 6.6977 17.8652 8.86025 18.3432 12.0059L23.4104 45.3537C24.0923 49.8415 25.8298 53.1128 28.6227 55.1678C31.4157 57.2228 34.8328 57.9432 38.874 57.3291C43.3642 56.6468 46.745 54.7098 49.0163 51.518C51.2877 48.3262 52.0006 43.9479 51.155 38.3831L46.4969 7.72792C46.019 4.5823 48.1815 1.64479 51.3271 1.16681L57.313 0.257259C60.4586 -0.220718 63.3961 1.94184 63.8741 5.08746L70.1074 46.1094C70.5438 48.9815 72.1989 50.1993 75.0727 49.7626Z" fill="#EF7E28"/>
</svg>
